<svg width="291" height="67" viewBox="0 0 291 67" fill="none" xmlns="http://www.w3.org/2000/svg">
<rect width="20" height="52.5001" fill="#008A93"/>
<rect x="25" y="29.1666" width="20" height="12.5" fill="#008A93"/>
<rect x="25" width="20" height="23.3334" fill="#008A93"/>
<path d="M69.642 52.1667V17.2577H93.4716V24.1099H78.0795V31.269H91.9545V38.1383H78.0795V52.1667H69.642ZM104.679 52.6099C103.009 52.6099 101.526 52.3315 100.23 51.7747C98.946 51.2065 97.929 50.3542 97.179 49.2179C96.4403 48.0702 96.071 46.6327 96.071 44.9054C96.071 43.4508 96.3267 42.2236 96.8381 41.2236C97.3494 40.2236 98.054 39.4111 98.9517 38.7861C99.8494 38.1611 100.884 37.6895 102.054 37.3713C103.224 37.0417 104.474 36.8202 105.804 36.7065C107.293 36.5702 108.491 36.4281 109.401 36.2804C110.31 36.1213 110.969 35.8997 111.378 35.6156C111.798 35.3202 112.009 34.9054 112.009 34.3713V34.2861C112.009 33.4111 111.707 32.7349 111.105 32.2577C110.503 31.7804 109.69 31.5417 108.668 31.5417C107.565 31.5417 106.679 31.7804 106.009 32.2577C105.338 32.7349 104.912 33.394 104.73 34.2349L97.0426 33.9622C97.2699 32.3713 97.8551 30.9508 98.7983 29.7008C99.7528 28.4395 101.06 27.4508 102.719 26.7349C104.389 26.0077 106.395 25.644 108.736 25.644C110.406 25.644 111.946 25.8429 113.355 26.2406C114.764 26.627 115.991 27.1952 117.037 27.9452C118.082 28.6838 118.889 29.5929 119.457 30.6724C120.037 31.752 120.327 32.9849 120.327 34.3713V52.1667H112.486V48.519H112.281C111.815 49.4054 111.219 50.1554 110.491 50.769C109.776 51.3827 108.929 51.8429 107.952 52.1497C106.986 52.4565 105.895 52.6099 104.679 52.6099ZM107.253 47.1554C108.151 47.1554 108.957 46.9736 109.673 46.6099C110.401 46.2463 110.98 45.7463 111.412 45.1099C111.844 44.4622 112.06 43.7122 112.06 42.8599V40.3713C111.821 40.4963 111.531 40.6099 111.19 40.7122C110.861 40.8145 110.497 40.9111 110.099 41.002C109.702 41.0929 109.293 41.1724 108.872 41.2406C108.452 41.3088 108.048 41.3713 107.662 41.4281C106.878 41.5531 106.207 41.7463 105.651 42.0077C105.105 42.269 104.685 42.6099 104.389 43.0304C104.105 43.4395 103.963 43.9281 103.963 44.4963C103.963 45.3599 104.27 46.019 104.884 46.4736C105.509 46.9281 106.298 47.1554 107.253 47.1554ZM133.759 37.2349V52.1667H125.423V25.9849H133.349V30.7917H133.639C134.219 29.1895 135.207 27.9338 136.605 27.0247C138.003 26.1042 139.668 25.644 141.599 25.644C143.44 25.644 145.037 26.0588 146.389 26.8883C147.753 27.7065 148.81 28.8542 149.56 30.3315C150.321 31.7974 150.696 33.5133 150.685 35.4792V52.1667H142.349V37.1156C142.361 35.6611 141.991 34.5247 141.241 33.7065C140.503 32.8883 139.474 32.4792 138.156 32.4792C137.281 32.4792 136.509 32.6724 135.838 33.0588C135.179 33.4338 134.668 33.9736 134.304 34.6781C133.952 35.3827 133.77 36.2349 133.759 37.2349ZM170.624 25.9849V32.1213H154.107V25.9849H170.624ZM157.567 19.7122H165.902V43.9338C165.902 44.4452 165.982 44.8599 166.141 45.1781C166.311 45.4849 166.555 45.7065 166.874 45.8429C167.192 45.9679 167.572 46.0304 168.016 46.0304C168.334 46.0304 168.669 46.002 169.021 45.9452C169.385 45.877 169.658 45.8202 169.839 45.7747L171.101 51.7917C170.703 51.9054 170.141 52.0474 169.413 52.2179C168.697 52.3883 167.839 52.4963 166.839 52.5417C164.885 52.6327 163.209 52.4054 161.811 51.8599C160.425 51.3031 159.362 50.4395 158.624 49.269C157.896 48.0986 157.544 46.627 157.567 44.8542V19.7122ZM182.257 52.6099C180.587 52.6099 179.104 52.3315 177.808 51.7747C176.524 51.2065 175.507 50.3542 174.757 49.2179C174.018 48.0702 173.649 46.6327 173.649 44.9054C173.649 43.4508 173.905 42.2236 174.416 41.2236C174.928 40.2236 175.632 39.4111 176.53 38.7861C177.428 38.1611 178.462 37.6895 179.632 37.3713C180.803 37.0417 182.053 36.8202 183.382 36.7065C184.871 36.5702 186.07 36.4281 186.979 36.2804C187.888 36.1213 188.547 35.8997 188.956 35.6156C189.376 35.3202 189.587 34.9054 189.587 34.3713V34.2861C189.587 33.4111 189.286 32.7349 188.683 32.2577C188.081 31.7804 187.268 31.5417 186.246 31.5417C185.143 31.5417 184.257 31.7804 183.587 32.2577C182.916 32.7349 182.49 33.394 182.308 34.2349L174.621 33.9622C174.848 32.3713 175.433 30.9508 176.376 29.7008C177.331 28.4395 178.638 27.4508 180.297 26.7349C181.967 26.0077 183.973 25.644 186.314 25.644C187.984 25.644 189.524 25.8429 190.933 26.2406C192.342 26.627 193.57 27.1952 194.615 27.9452C195.661 28.6838 196.467 29.5929 197.036 30.6724C197.615 31.752 197.905 32.9849 197.905 34.3713V52.1667H190.064V48.519H189.859C189.393 49.4054 188.797 50.1554 188.07 50.769C187.354 51.3827 186.507 51.8429 185.53 52.1497C184.564 52.4565 183.473 52.6099 182.257 52.6099ZM184.831 47.1554C185.729 47.1554 186.536 46.9736 187.251 46.6099C187.979 46.2463 188.558 45.7463 188.99 45.1099C189.422 44.4622 189.638 43.7122 189.638 42.8599V40.3713C189.399 40.4963 189.109 40.6099 188.768 40.7122C188.439 40.8145 188.075 40.9111 187.678 41.002C187.28 41.0929 186.871 41.1724 186.45 41.2406C186.03 41.3088 185.626 41.3713 185.24 41.4281C184.456 41.5531 183.786 41.7463 183.229 42.0077C182.683 42.269 182.263 42.6099 181.967 43.0304C181.683 43.4395 181.541 43.9281 181.541 44.4963C181.541 45.3599 181.848 46.019 182.462 46.4736C183.087 46.9281 183.876 47.1554 184.831 47.1554ZM215.223 52.6611C212.462 52.6611 210.092 52.0929 208.115 50.9565C206.149 49.8202 204.638 48.2406 203.581 46.2179C202.524 44.1838 201.996 41.8315 201.996 39.1611C201.996 36.4792 202.524 34.127 203.581 32.1042C204.649 30.0702 206.166 28.4849 208.132 27.3486C210.109 26.2122 212.467 25.644 215.206 25.644C217.626 25.644 219.734 26.0815 221.53 26.9565C223.337 27.8315 224.746 29.0702 225.757 30.6724C226.78 32.2633 227.32 34.1327 227.376 36.2804H219.587C219.428 34.9395 218.973 33.8883 218.223 33.127C217.484 32.3656 216.518 31.9849 215.325 31.9849C214.359 31.9849 213.513 32.2577 212.786 32.8031C212.058 33.3372 211.49 34.1327 211.081 35.1895C210.683 36.2349 210.484 37.5304 210.484 39.0758C210.484 40.6213 210.683 41.9281 211.081 42.9963C211.49 44.0531 212.058 44.8542 212.786 45.3997C213.513 45.9338 214.359 46.2008 215.325 46.2008C216.098 46.2008 216.78 46.0361 217.371 45.7065C217.973 45.377 218.467 44.894 218.854 44.2577C219.24 43.6099 219.484 42.8258 219.587 41.9054H227.376C227.297 44.0645 226.757 45.9508 225.757 47.5645C224.768 49.1781 223.376 50.4338 221.581 51.3315C219.797 52.2179 217.678 52.6611 215.223 52.6611ZM231.642 52.1667V25.9849H239.977V52.1667H231.642ZM235.818 22.9338C234.648 22.9338 233.642 22.5474 232.801 21.7747C231.96 20.9906 231.54 20.0474 231.54 18.9452C231.54 17.8542 231.96 16.9224 232.801 16.1497C233.642 15.3656 234.648 14.9736 235.818 14.9736C237 14.9736 238.006 15.3656 238.835 16.1497C239.676 16.9224 240.097 17.8542 240.097 18.9452C240.097 20.0474 239.676 20.9906 238.835 21.7747C238.006 22.5474 237 22.9338 235.818 22.9338ZM260.061 25.9849V32.1213H243.544V25.9849H260.061ZM247.004 19.7122H255.339V43.9338C255.339 44.4452 255.419 44.8599 255.578 45.1781C255.749 45.4849 255.993 45.7065 256.311 45.8429C256.629 45.9679 257.01 46.0304 257.453 46.0304C257.771 46.0304 258.107 46.002 258.459 45.9452C258.822 45.877 259.095 45.8202 259.277 45.7747L260.538 51.7917C260.141 51.9054 259.578 52.0474 258.851 52.2179C258.135 52.3883 257.277 52.4963 256.277 52.5417C254.322 52.6327 252.646 52.4054 251.249 51.8599C249.862 51.3031 248.8 50.4395 248.061 49.269C247.334 48.0986 246.982 46.627 247.004 44.8542V19.7122ZM269.411 61.9849C268.411 61.9849 267.467 61.9054 266.581 61.7463C265.695 61.5986 264.933 61.3997 264.297 61.1497L266.138 55.0986C266.956 55.3713 267.695 55.5304 268.354 55.5758C269.024 55.6213 269.598 55.5133 270.075 55.252C270.564 55.002 270.939 54.5531 271.2 53.9054L271.524 53.1213L262.217 25.9849H270.945L275.768 44.6667H276.041L280.933 25.9849H289.712L279.842 54.6724C279.365 56.1042 278.689 57.3656 277.814 58.4565C276.95 59.5588 275.831 60.4224 274.456 61.0474C273.092 61.6724 271.411 61.9849 269.411 61.9849Z" fill="#D8D8D8"/>
</svg>
