<svg width="350" height="67" viewBox="0 0 350 67" fill="none" xmlns="http://www.w3.org/2000/svg">
<g clip-path="url(#clip0_406_421)">
<path d="M79.642 56V21.0909H94.0625C96.6761 21.0909 98.9318 21.6023 100.83 22.625C102.739 23.6364 104.21 25.0511 105.244 26.8693C106.278 28.6761 106.795 30.7784 106.795 33.1761C106.795 35.5852 106.267 37.6932 105.21 39.5C104.165 41.2955 102.67 42.6875 100.727 43.6761C98.7841 44.6648 96.4773 45.1591 93.8068 45.1591H84.9091V38.5114H92.2386C93.5114 38.5114 94.5739 38.2898 95.4261 37.8466C96.2898 37.4034 96.9432 36.7841 97.3864 35.9886C97.8295 35.1818 98.0511 34.2443 98.0511 33.1761C98.0511 32.0966 97.8295 31.1648 97.3864 30.3807C96.9432 29.5852 96.2898 28.9716 95.4261 28.5398C94.5625 28.108 93.5 27.892 92.2386 27.892H88.0795V56H79.642ZM110.955 56V29.8182H119.051V34.5909H119.324C119.801 32.8636 120.58 31.5795 121.659 30.7386C122.739 29.8864 123.994 29.4602 125.426 29.4602C125.813 29.4602 126.21 29.4886 126.619 29.5455C127.028 29.5909 127.409 29.6648 127.761 29.767V37.0114C127.364 36.875 126.841 36.767 126.193 36.6875C125.557 36.608 124.989 36.5682 124.489 36.5682C123.5 36.5682 122.608 36.7898 121.812 37.233C121.028 37.6648 120.409 38.2727 119.955 39.0568C119.511 39.8295 119.29 40.7386 119.29 41.7841V56H110.955ZM142.02 56.4943C139.27 56.4943 136.906 55.9318 134.929 54.8068C132.963 53.6705 131.446 52.0909 130.378 50.0682C129.321 48.0341 128.793 45.6761 128.793 42.9943C128.793 40.3011 129.321 37.9432 130.378 35.9205C131.446 33.8864 132.963 32.3068 134.929 31.1818C136.906 30.0455 139.27 29.4773 142.02 29.4773C144.77 29.4773 147.128 30.0455 149.094 31.1818C151.071 32.3068 152.588 33.8864 153.645 35.9205C154.713 37.9432 155.247 40.3011 155.247 42.9943C155.247 45.6761 154.713 48.0341 153.645 50.0682C152.588 52.0909 151.071 53.6705 149.094 54.8068C147.128 55.9318 144.77 56.4943 142.02 56.4943ZM142.071 50.2045C143.071 50.2045 143.918 49.8977 144.611 49.2841C145.304 48.6705 145.832 47.8182 146.196 46.7273C146.571 45.6364 146.759 44.375 146.759 42.9432C146.759 41.4886 146.571 40.2159 146.196 39.125C145.832 38.0341 145.304 37.1818 144.611 36.5682C143.918 35.9545 143.071 35.6477 142.071 35.6477C141.037 35.6477 140.162 35.9545 139.446 36.5682C138.741 37.1818 138.202 38.0341 137.827 39.125C137.463 40.2159 137.281 41.4886 137.281 42.9432C137.281 44.375 137.463 45.6364 137.827 46.7273C138.202 47.8182 138.741 48.6705 139.446 49.2841C140.162 49.8977 141.037 50.2045 142.071 50.2045ZM159.517 56V29.8182H167.443V34.625H167.733C168.278 33.0341 169.199 31.7784 170.494 30.858C171.79 29.9375 173.335 29.4773 175.131 29.4773C176.949 29.4773 178.506 29.9432 179.801 30.875C181.097 31.8068 181.92 33.0568 182.273 34.625H182.545C183.034 33.0682 183.989 31.8239 185.409 30.892C186.83 29.9489 188.506 29.4773 190.438 29.4773C192.915 29.4773 194.926 30.2727 196.472 31.8636C198.017 33.4432 198.79 35.6136 198.79 38.375V56H190.455V40.2841C190.455 38.9773 190.119 37.983 189.449 37.3011C188.778 36.608 187.909 36.2614 186.841 36.2614C185.693 36.2614 184.79 36.6364 184.131 37.3864C183.483 38.125 183.159 39.1193 183.159 40.3693V56H175.148V40.1989C175.148 38.983 174.818 38.0227 174.159 37.3182C173.5 36.6136 172.631 36.2614 171.551 36.2614C170.824 36.2614 170.182 36.4375 169.625 36.7898C169.068 37.1307 168.631 37.6193 168.312 38.2557C168.006 38.892 167.852 39.642 167.852 40.5057V56H159.517ZM203.955 65.8182V29.8182H212.205V34.3011H212.46C212.801 33.5057 213.284 32.7386 213.909 32C214.545 31.2614 215.352 30.6591 216.33 30.1932C217.318 29.7159 218.5 29.4773 219.875 29.4773C221.693 29.4773 223.392 29.9545 224.972 30.9091C226.562 31.8636 227.847 33.3352 228.824 35.3239C229.801 37.3125 230.29 39.8466 230.29 42.9261C230.29 45.892 229.818 48.375 228.875 50.375C227.943 52.375 226.682 53.875 225.091 54.875C223.511 55.875 221.756 56.375 219.824 56.375C218.506 56.375 217.364 56.1591 216.398 55.7273C215.432 55.2955 214.619 54.7273 213.96 54.0227C213.312 53.3182 212.813 52.5625 212.46 51.7557H212.29V65.8182H203.955ZM212.119 42.9091C212.119 44.3182 212.307 45.5455 212.682 46.5909C213.068 47.6364 213.619 48.4489 214.335 49.0284C215.062 49.5966 215.932 49.8807 216.943 49.8807C217.966 49.8807 218.835 49.5966 219.551 49.0284C220.267 48.4489 220.807 47.6364 221.17 46.5909C221.545 45.5455 221.733 44.3182 221.733 42.9091C221.733 41.5 221.545 40.2784 221.17 39.2443C220.807 38.2102 220.267 37.4091 219.551 36.8409C218.847 36.2727 217.977 35.9886 216.943 35.9886C215.92 35.9886 215.051 36.267 214.335 36.8239C213.619 37.3807 213.068 38.1761 212.682 39.2102C212.307 40.2443 212.119 41.4773 212.119 42.9091ZM249.436 29.8182V35.9545H232.919V29.8182H249.436ZM236.379 23.5455H244.714V47.767C244.714 48.2784 244.794 48.6932 244.953 49.0114C245.124 49.3182 245.368 49.5398 245.686 49.6761C246.004 49.8011 246.385 49.8636 246.828 49.8636C247.146 49.8636 247.482 49.8352 247.834 49.7784C248.197 49.7102 248.47 49.6534 248.652 49.608L249.913 55.625C249.516 55.7386 248.953 55.8807 248.226 56.0511C247.51 56.2216 246.652 56.3295 245.652 56.375C243.697 56.4659 242.021 56.2386 240.624 55.6932C239.237 55.1364 238.175 54.2727 237.436 53.1023C236.709 51.9318 236.357 50.4602 236.379 48.6875V23.5455ZM265.629 56.4943C262.879 56.4943 260.516 55.9318 258.538 54.8068C256.572 53.6705 255.055 52.0909 253.987 50.0682C252.93 48.0341 252.402 45.6761 252.402 42.9943C252.402 40.3011 252.93 37.9432 253.987 35.9205C255.055 33.8864 256.572 32.3068 258.538 31.1818C260.516 30.0455 262.879 29.4773 265.629 29.4773C268.379 29.4773 270.737 30.0455 272.703 31.1818C274.68 32.3068 276.197 33.8864 277.254 35.9205C278.322 37.9432 278.857 40.3011 278.857 42.9943C278.857 45.6761 278.322 48.0341 277.254 50.0682C276.197 52.0909 274.68 53.6705 272.703 54.8068C270.737 55.9318 268.379 56.4943 265.629 56.4943ZM265.68 50.2045C266.68 50.2045 267.527 49.8977 268.22 49.2841C268.913 48.6705 269.442 47.8182 269.805 46.7273C270.18 45.6364 270.368 44.375 270.368 42.9432C270.368 41.4886 270.18 40.2159 269.805 39.125C269.442 38.0341 268.913 37.1818 268.22 36.5682C267.527 35.9545 266.68 35.6477 265.68 35.6477C264.646 35.6477 263.771 35.9545 263.055 36.5682C262.351 37.1818 261.811 38.0341 261.436 39.125C261.072 40.2159 260.891 41.4886 260.891 42.9432C260.891 44.375 261.072 45.6364 261.436 46.7273C261.811 47.8182 262.351 48.6705 263.055 49.2841C263.771 49.8977 264.646 50.2045 265.68 50.2045ZM287.456 56L280.638 29.8182H289.007L292.536 46.5909H292.757L296.541 29.8182H304.706L308.592 46.4716H308.814L312.24 29.8182H320.609L313.774 56H304.859L300.768 40.7443H300.479L296.388 56H287.456ZM332.29 41.0682V56H323.955V29.8182H331.881V34.625H332.17C332.75 33.0227 333.739 31.767 335.136 30.858C336.534 29.9375 338.199 29.4773 340.131 29.4773C341.972 29.4773 343.568 29.892 344.92 30.7216C346.284 31.5398 347.341 32.6875 348.091 34.1648C348.852 35.6307 349.227 37.3466 349.216 39.3125V56H340.881V40.9489C340.892 39.4943 340.523 38.358 339.773 37.5398C339.034 36.7216 338.006 36.3125 336.688 36.3125C335.812 36.3125 335.04 36.5057 334.369 36.892C333.71 37.267 333.199 37.8068 332.835 38.5114C332.483 39.2159 332.301 40.0682 332.29 41.0682Z" fill="white"/>
<mask id="mask0_406_421" style="mask-type:alpha" maskUnits="userSpaceOnUse" x="11" y="13" width="51" height="51">
<circle cx="36.5" cy="38.5" r="25.5" fill="#D9D9D9"/>
</mask>
<g mask="url(#mask0_406_421)">
<rect x="35.3081" y="-1.48193" width="12.7575" height="54.8574" transform="rotate(45 35.3081 -1.48193)" fill="#4357FF"/>
<rect x="65.979" y="29.1892" width="12.7575" height="54.8574" transform="rotate(45 65.979 29.1892)" fill="#4357FF"/>
<rect x="47.937" y="11.1475" width="20.4121" height="54.8574" transform="rotate(45 47.937 11.1475)" fill="#4357FF"/>
</g>
</g>
<defs>
<clipPath id="clip0_406_421">
<rect width="350" height="67" fill="white"/>
</clipPath>
</defs>
</svg>
